solid OpenSCAD_Model
  facet normal -1 0 0
    outer loop
      vertex 17 5 0
      vertex 17 7 1
      vertex 17 7 0
    endloop
  endfacet
  facet normal -1 -0 0
    outer loop
      vertex 17 7 1
      vertex 17 5 0
      vertex 17 5 1
    endloop
  endfacet
  facet normal 1 -0 0
    outer loop
      vertex 2 5 1
      vertex 2 7 0
      vertex 2 7 1
    endloop
  endfacet
  facet normal 1 0 0
    outer loop
      vertex 2 7 0
      vertex 2 5 1
      vertex 2 5 0
    endloop
  endfacet
  facet normal 0 1 -0
    outer loop
      vertex 5 5 0
      vertex 2 5 1
      vertex 5 5 1
    endloop
  endfacet
  facet normal 0 1 0
    outer loop
      vertex 2 5 1
      vertex 5 5 0
      vertex 2 5 0
    endloop
  endfacet
  facet normal 0 1 -0
    outer loop
      vertex 17 5 0
      vertex 7 5 1
      vertex 17 5 1
    endloop
  endfacet
  facet normal 0 1 0
    outer loop
      vertex 7 5 1
      vertex 17 5 0
      vertex 7 5 0
    endloop
  endfacet
  facet normal 0 -1 0
    outer loop
      vertex 2 7 0
      vertex 5 7 1
      vertex 2 7 1
    endloop
  endfacet
  facet normal 0 -1 -0
    outer loop
      vertex 5 7 1
      vertex 2 7 0
      vertex 5 7 0
    endloop
  endfacet
  facet normal 0 -1 0
    outer loop
      vertex 7 7 0
      vertex 17 7 1
      vertex 7 7 1
    endloop
  endfacet
  facet normal 0 -1 -0
    outer loop
      vertex 17 7 1
      vertex 7 7 0
      vertex 17 7 0
    endloop
  endfacet
  facet normal -1 0 0
    outer loop
      vertex 7 2 0
      vertex 7 5 1
      vertex 7 5 0
    endloop
  endfacet
  facet normal -1 -0 0
    outer loop
      vertex 7 5 1
      vertex 7 2 0
      vertex 7 2 1
    endloop
  endfacet
  facet normal -1 0 0
    outer loop
      vertex 7 7 0
      vertex 7 17 1
      vertex 7 17 0
    endloop
  endfacet
  facet normal -1 -0 0
    outer loop
      vertex 7 17 1
      vertex 7 7 0
      vertex 7 7 1
    endloop
  endfacet
  facet normal 1 -0 0
    outer loop
      vertex 5 7 1
      vertex 5 17 0
      vertex 5 17 1
    endloop
  endfacet
  facet normal 1 0 0
    outer loop
      vertex 5 17 0
      vertex 5 7 1
      vertex 5 7 0
    endloop
  endfacet
  facet normal 1 -0 0
    outer loop
      vertex 5 2 1
      vertex 5 5 0
      vertex 5 5 1
    endloop
  endfacet
  facet normal 1 0 0
    outer loop
      vertex 5 5 0
      vertex 5 2 1
      vertex 5 2 0
    endloop
  endfacet
  facet normal 0 1 -0
    outer loop
      vertex 7 2 0
      vertex 5 2 1
      vertex 7 2 1
    endloop
  endfacet
  facet normal 0 1 0
    outer loop
      vertex 5 2 1
      vertex 7 2 0
      vertex 5 2 0
    endloop
  endfacet
  facet normal 0 -1 0
    outer loop
      vertex 5 17 0
      vertex 7 17 1
      vertex 5 17 1
    endloop
  endfacet
  facet normal 0 -1 -0
    outer loop
      vertex 7 17 1
      vertex 5 17 0
      vertex 7 17 0
    endloop
  endfacet
  facet normal -1 0 0
    outer loop
      vertex 38 23 0
      vertex 38 38 1
      vertex 38 38 0
    endloop
  endfacet
  facet normal -1 -0 0
    outer loop
      vertex 38 38 1
      vertex 38 23 0
      vertex 38 23 1
    endloop
  endfacet
  facet normal 1 -0 0
    outer loop
      vertex 23 23 1
      vertex 23 38 0
      vertex 23 38 1
    endloop
  endfacet
  facet normal 1 0 0
    outer loop
      vertex 23 38 0
      vertex 23 23 1
      vertex 23 23 0
    endloop
  endfacet
  facet normal 0 1 -0
    outer loop
      vertex 38 23 0
      vertex 23 23 1
      vertex 38 23 1
    endloop
  endfacet
  facet normal 0 1 0
    outer loop
      vertex 23 23 1
      vertex 38 23 0
      vertex 23 23 0
    endloop
  endfacet
  facet normal 0 -1 0
    outer loop
      vertex 23 38 0
      vertex 38 38 1
      vertex 23 38 1
    endloop
  endfacet
  facet normal 0 -1 -0
    outer loop
      vertex 38 38 1
      vertex 23 38 0
      vertex 38 38 0
    endloop
  endfacet
  facet normal -0.45399 0.891007 0
    outer loop
      vertex 13.4084 24.9324 0
      vertex 11.3176 23.8671 1
      vertex 13.4084 24.9324 1
    endloop
  endfacet
  facet normal -0.45399 0.891007 0
    outer loop
      vertex 11.3176 23.8671 1
      vertex 13.4084 24.9324 0
      vertex 11.3176 23.8671 0
    endloop
  endfacet
  facet normal -0.707107 0.707107 0
    outer loop
      vertex 15.0676 26.5916 0
      vertex 13.4084 24.9324 1
      vertex 15.0676 26.5916 1
    endloop
  endfacet
  facet normal -0.707107 0.707107 0
    outer loop
      vertex 13.4084 24.9324 1
      vertex 15.0676 26.5916 0
      vertex 13.4084 24.9324 0
    endloop
  endfacet
  facet normal -0.891007 0.45399 0
    outer loop
      vertex 15.0676 26.5916 0
      vertex 16.1329 28.6824 1
      vertex 16.1329 28.6824 0
    endloop
  endfacet
  facet normal -0.891007 0.45399 0
    outer loop
      vertex 16.1329 28.6824 1
      vertex 15.0676 26.5916 0
      vertex 15.0676 26.5916 1
    endloop
  endfacet
  facet normal 0.891007 -0.45399 0
    outer loop
      vertex 1.86708 33.3176 1
      vertex 2.93237 35.4084 0
      vertex 2.93237 35.4084 1
    endloop
  endfacet
  facet normal 0.891007 -0.45399 0
    outer loop
      vertex 2.93237 35.4084 0
      vertex 1.86708 33.3176 1
      vertex 1.86708 33.3176 0
    endloop
  endfacet
  facet normal -0.987688 0.156435 0
    outer loop
      vertex 16.1329 28.6824 0
      vertex 16.5 31 1
      vertex 16.5 31 0
    endloop
  endfacet
  facet normal -0.987688 0.156435 0
    outer loop
      vertex 16.5 31 1
      vertex 16.1329 28.6824 0
      vertex 16.1329 28.6824 1
    endloop
  endfacet
  facet normal 0.45399 -0.891007 0
    outer loop
      vertex 4.59161 37.0676 0
      vertex 6.68237 38.1329 1
      vertex 4.59161 37.0676 1
    endloop
  endfacet
  facet normal 0.45399 -0.891007 0
    outer loop
      vertex 6.68237 38.1329 1
      vertex 4.59161 37.0676 0
      vertex 6.68237 38.1329 0
    endloop
  endfacet
  facet normal 0.45399 0.891007 -0
    outer loop
      vertex 6.68237 23.8671 0
      vertex 4.59161 24.9324 1
      vertex 6.68237 23.8671 1
    endloop
  endfacet
  facet normal 0.45399 0.891007 0
    outer loop
      vertex 4.59161 24.9324 1
      vertex 6.68237 23.8671 0
      vertex 4.59161 24.9324 0
    endloop
  endfacet
  facet normal -0.156435 -0.987688 0
    outer loop
      vertex 9 38.5 0
      vertex 11.3176 38.1329 1
      vertex 9 38.5 1
    endloop
  endfacet
  facet normal -0.156435 -0.987688 -0
    outer loop
      vertex 11.3176 38.1329 1
      vertex 9 38.5 0
      vertex 11.3176 38.1329 0
    endloop
  endfacet
  facet normal 0.891007 0.45399 0
    outer loop
      vertex 2.93237 26.5916 1
      vertex 1.86708 28.6824 0
      vertex 1.86708 28.6824 1
    endloop
  endfacet
  facet normal 0.891007 0.45399 0
    outer loop
      vertex 1.86708 28.6824 0
      vertex 2.93237 26.5916 1
      vertex 2.93237 26.5916 0
    endloop
  endfacet
  facet normal 0.707107 0.707107 -0
    outer loop
      vertex 4.59161 24.9324 0
      vertex 2.93237 26.5916 1
      vertex 4.59161 24.9324 1
    endloop
  endfacet
  facet normal 0.707107 0.707107 0
    outer loop
      vertex 2.93237 26.5916 1
      vertex 4.59161 24.9324 0
      vertex 2.93237 26.5916 0
    endloop
  endfacet
  facet normal 0.156435 0.987688 -0
    outer loop
      vertex 9 23.5 0
      vertex 6.68237 23.8671 1
      vertex 9 23.5 1
    endloop
  endfacet
  facet normal 0.156435 0.987688 0
    outer loop
      vertex 6.68237 23.8671 1
      vertex 9 23.5 0
      vertex 6.68237 23.8671 0
    endloop
  endfacet
  facet normal -0.156435 0.987688 0
    outer loop
      vertex 11.3176 23.8671 0
      vertex 9 23.5 1
      vertex 11.3176 23.8671 1
    endloop
  endfacet
  facet normal -0.156435 0.987688 0
    outer loop
      vertex 9 23.5 1
      vertex 11.3176 23.8671 0
      vertex 9 23.5 0
    endloop
  endfacet
  facet normal 0.707107 -0.707107 0
    outer loop
      vertex 2.93237 35.4084 0
      vertex 4.59161 37.0676 1
      vertex 2.93237 35.4084 1
    endloop
  endfacet
  facet normal 0.707107 -0.707107 0
    outer loop
      vertex 4.59161 37.0676 1
      vertex 2.93237 35.4084 0
      vertex 4.59161 37.0676 0
    endloop
  endfacet
  facet normal 0.156435 -0.987688 0
    outer loop
      vertex 6.68237 38.1329 0
      vertex 9 38.5 1
      vertex 6.68237 38.1329 1
    endloop
  endfacet
  facet normal 0.156435 -0.987688 0
    outer loop
      vertex 9 38.5 1
      vertex 6.68237 38.1329 0
      vertex 9 38.5 0
    endloop
  endfacet
  facet normal -0.45399 -0.891007 0
    outer loop
      vertex 11.3176 38.1329 0
      vertex 13.4084 37.0676 1
      vertex 11.3176 38.1329 1
    endloop
  endfacet
  facet normal -0.45399 -0.891007 -0
    outer loop
      vertex 13.4084 37.0676 1
      vertex 11.3176 38.1329 0
      vertex 13.4084 37.0676 0
    endloop
  endfacet
  facet normal 0.987688 0.156434 0
    outer loop
      vertex 1.86708 28.6824 1
      vertex 1.5 31 0
      vertex 1.5 31 1
    endloop
  endfacet
  facet normal 0.987688 0.156434 0
    outer loop
      vertex 1.5 31 0
      vertex 1.86708 28.6824 1
      vertex 1.86708 28.6824 0
    endloop
  endfacet
  facet normal 0.987688 -0.156434 0
    outer loop
      vertex 1.5 31 1
      vertex 1.86708 33.3176 0
      vertex 1.86708 33.3176 1
    endloop
  endfacet
  facet normal 0.987688 -0.156434 0
    outer loop
      vertex 1.86708 33.3176 0
      vertex 1.5 31 1
      vertex 1.5 31 0
    endloop
  endfacet
  facet normal -0.707107 -0.707107 0
    outer loop
      vertex 13.4084 37.0676 0
      vertex 15.0676 35.4084 1
      vertex 13.4084 37.0676 1
    endloop
  endfacet
  facet normal -0.707107 -0.707107 -0
    outer loop
      vertex 15.0676 35.4084 1
      vertex 13.4084 37.0676 0
      vertex 15.0676 35.4084 0
    endloop
  endfacet
  facet normal -0.891007 -0.45399 0
    outer loop
      vertex 16.1329 33.3176 0
      vertex 15.0676 35.4084 1
      vertex 15.0676 35.4084 0
    endloop
  endfacet
  facet normal -0.891007 -0.45399 0
    outer loop
      vertex 15.0676 35.4084 1
      vertex 16.1329 33.3176 0
      vertex 16.1329 33.3176 1
    endloop
  endfacet
  facet normal -0.987688 -0.156435 0
    outer loop
      vertex 16.5 31 0
      vertex 16.1329 33.3176 1
      vertex 16.1329 33.3176 0
    endloop
  endfacet
  facet normal -0.987688 -0.156435 0
    outer loop
      vertex 16.1329 33.3176 1
      vertex 16.5 31 0
      vertex 16.5 31 1
    endloop
  endfacet
  facet normal 0 1 -0
    outer loop
      vertex 38 2 0
      vertex 23 2 1
      vertex 38 2 1
    endloop
  endfacet
  facet normal 0 1 0
    outer loop
      vertex 23 2 1
      vertex 38 2 0
      vertex 23 2 0
    endloop
  endfacet
  facet normal -0.707107 -0.707107 0
    outer loop
      vertex 38 2 0
      vertex 23 17 1
      vertex 23 17 0
    endloop
  endfacet
  facet normal -0.707107 -0.707107 0
    outer loop
      vertex 23 17 1
      vertex 38 2 0
      vertex 38 2 1
    endloop
  endfacet
  facet normal 1 -0 0
    outer loop
      vertex 23 2 1
      vertex 23 17 0
      vertex 23 17 1
    endloop
  endfacet
  facet normal 1 0 0
    outer loop
      vertex 23 17 0
      vertex 23 2 1
      vertex 23 2 0
    endloop
  endfacet
  facet normal 0 0 -1
    outer loop
      vertex 2 7 0
      vertex 5 17 0
      vertex 5 7 0
    endloop
  endfacet
  facet normal 0 -0 -1
    outer loop
      vertex 2.93237 26.5916 0
      vertex 5 17 0
      vertex 2 7 0
    endloop
  endfacet
  facet normal 0 0 -1
    outer loop
      vertex 5 17 0
      vertex 2.93237 26.5916 0
      vertex 4.59161 24.9324 0
    endloop
  endfacet
  facet normal -0 0 -1
    outer loop
      vertex 2.93237 26.5916 0
      vertex 2 7 0
      vertex 1.86708 28.6824 0
    endloop
  endfacet
  facet normal 0 0 -1
    outer loop
      vertex 23 23 0
      vertex 16.1329 28.6824 0
      vertex 16.5 31 0
    endloop
  endfacet
  facet normal 0 0 -1
    outer loop
      vertex 23 17 0
      vertex 15.0676 26.5916 0
      vertex 16.1329 28.6824 0
    endloop
  endfacet
  facet normal 0 0 -1
    outer loop
      vertex 23 17 0
      vertex 13.4084 24.9324 0
      vertex 15.0676 26.5916 0
    endloop
  endfacet
  facet normal 0 0 -1
    outer loop
      vertex 23 17 0
      vertex 11.3176 23.8671 0
      vertex 13.4084 24.9324 0
    endloop
  endfacet
  facet normal 0 0 -1
    outer loop
      vertex 23 17 0
      vertex 7 17 0
      vertex 11.3176 23.8671 0
    endloop
  endfacet
  facet normal 0 0 -1
    outer loop
      vertex 7 17 0
      vertex 17 7 0
      vertex 7 7 0
    endloop
  endfacet
  facet normal 0 0 -1
    outer loop
      vertex 11.3176 23.8671 0
      vertex 7 17 0
      vertex 9 23.5 0
    endloop
  endfacet
  facet normal 0 0 -1
    outer loop
      vertex 7 17 0
      vertex 6.68237 23.8671 0
      vertex 9 23.5 0
    endloop
  endfacet
  facet normal 0 0 -1
    outer loop
      vertex 5 17 0
      vertex 6.68237 23.8671 0
      vertex 7 17 0
    endloop
  endfacet
  facet normal -0 0 -1
    outer loop
      vertex 6.68237 23.8671 0
      vertex 5 17 0
      vertex 4.59161 24.9324 0
    endloop
  endfacet
  facet normal 0 0 -1
    outer loop
      vertex 23 17 0
      vertex 38 23 0
      vertex 38 2 0
    endloop
  endfacet
  facet normal -0 0 -1
    outer loop
      vertex 38 23 0
      vertex 23 17 0
      vertex 23 23 0
    endloop
  endfacet
  facet normal 0 0 -1
    outer loop
      vertex 38 23 0
      vertex 40 0 0
      vertex 38 2 0
    endloop
  endfacet
  facet normal 0 0 -1
    outer loop
      vertex 40 0 0
      vertex 23 2 0
      vertex 38 2 0
    endloop
  endfacet
  facet normal 0 0 -1
    outer loop
      vertex 17 7 0
      vertex 23 17 0
      vertex 23 2 0
    endloop
  endfacet
  facet normal 0 0 -1
    outer loop
      vertex 7 17 0
      vertex 23 17 0
      vertex 17 7 0
    endloop
  endfacet
  facet normal 0 0 -1
    outer loop
      vertex 17 7 0
      vertex 23 2 0
      vertex 17 5 0
    endloop
  endfacet
  facet normal 0 0 -1
    outer loop
      vertex 23 2 0
      vertex 7 2 0
      vertex 17 5 0
    endloop
  endfacet
  facet normal 0 0 -1
    outer loop
      vertex 0 0 0
      vertex 23 2 0
      vertex 40 0 0
    endloop
  endfacet
  facet normal -0 0 -1
    outer loop
      vertex 23 2 0
      vertex 0 0 0
      vertex 7 2 0
    endloop
  endfacet
  facet normal 0 0 -1
    outer loop
      vertex 5 2 0
      vertex 2 5 0
      vertex 5 5 0
    endloop
  endfacet
  facet normal 0 0 -1
    outer loop
      vertex 0 0 0
      vertex 2 7 0
      vertex 2 5 0
    endloop
  endfacet
  facet normal -0 0 -1
    outer loop
      vertex 2 7 0
      vertex 0 0 0
      vertex 1.86708 28.6824 0
    endloop
  endfacet
  facet normal -0 0 -1
    outer loop
      vertex 1.86708 28.6824 0
      vertex 0 0 0
      vertex 1.5 31 0
    endloop
  endfacet
  facet normal -0 0 -1
    outer loop
      vertex 5 2 0
      vertex 0 0 0
      vertex 2 5 0
    endloop
  endfacet
  facet normal -0 0 -1
    outer loop
      vertex 7 2 0
      vertex 0 0 0
      vertex 5 2 0
    endloop
  endfacet
  facet normal 0 0 -1
    outer loop
      vertex 40 0 0
      vertex 38 23 0
      vertex 40 40 0
    endloop
  endfacet
  facet normal 0 0 -1
    outer loop
      vertex 38 38 0
      vertex 40 40 0
      vertex 38 23 0
    endloop
  endfacet
  facet normal 0 0 -1
    outer loop
      vertex 23 38 0
      vertex 40 40 0
      vertex 38 38 0
    endloop
  endfacet
  facet normal 0 0 -1
    outer loop
      vertex 16.1329 28.6824 0
      vertex 23 23 0
      vertex 23 17 0
    endloop
  endfacet
  facet normal 0 0 -1
    outer loop
      vertex 23 23 0
      vertex 16.5 31 0
      vertex 23 38 0
    endloop
  endfacet
  facet normal 0 0 -1
    outer loop
      vertex 16.1329 33.3176 0
      vertex 23 38 0
      vertex 16.5 31 0
    endloop
  endfacet
  facet normal 0 0 -1
    outer loop
      vertex 15.0676 35.4084 0
      vertex 23 38 0
      vertex 16.1329 33.3176 0
    endloop
  endfacet
  facet normal 0 0 -1
    outer loop
      vertex 13.4084 37.0676 0
      vertex 23 38 0
      vertex 15.0676 35.4084 0
    endloop
  endfacet
  facet normal 0 0 -1
    outer loop
      vertex 11.3176 38.1329 0
      vertex 23 38 0
      vertex 13.4084 37.0676 0
    endloop
  endfacet
  facet normal 0 0 -1
    outer loop
      vertex 9 38.5 0
      vertex 23 38 0
      vertex 11.3176 38.1329 0
    endloop
  endfacet
  facet normal 0 0 -1
    outer loop
      vertex 0 40 0
      vertex 23 38 0
      vertex 9 38.5 0
    endloop
  endfacet
  facet normal 0 0 -1
    outer loop
      vertex 23 38 0
      vertex 0 40 0
      vertex 40 40 0
    endloop
  endfacet
  facet normal 0 0 -1
    outer loop
      vertex 6.68237 38.1329 0
      vertex 0 40 0
      vertex 9 38.5 0
    endloop
  endfacet
  facet normal 0 0 -1
    outer loop
      vertex 4.59161 37.0676 0
      vertex 0 40 0
      vertex 6.68237 38.1329 0
    endloop
  endfacet
  facet normal 0 0 -1
    outer loop
      vertex 2.93237 35.4084 0
      vertex 0 40 0
      vertex 4.59161 37.0676 0
    endloop
  endfacet
  facet normal 0 0 -1
    outer loop
      vertex 1.86708 33.3176 0
      vertex 0 40 0
      vertex 2.93237 35.4084 0
    endloop
  endfacet
  facet normal 0 0 -1
    outer loop
      vertex 1.5 31 0
      vertex 0 40 0
      vertex 1.86708 33.3176 0
    endloop
  endfacet
  facet normal 0 0 -1
    outer loop
      vertex 0 40 0
      vertex 1.5 31 0
      vertex 0 0 0
    endloop
  endfacet
  facet normal -0 0 -1
    outer loop
      vertex 17 5 0
      vertex 7 2 0
      vertex 7 5 0
    endloop
  endfacet
  facet normal 1 -0 0
    outer loop
      vertex 40 0 1
      vertex 40 40 0
      vertex 40 40 1
    endloop
  endfacet
  facet normal 1 0 0
    outer loop
      vertex 40 40 0
      vertex 40 0 1
      vertex 40 0 0
    endloop
  endfacet
  facet normal -1 0 0
    outer loop
      vertex 0 0 0
      vertex 0 40 1
      vertex 0 40 0
    endloop
  endfacet
  facet normal -1 -0 0
    outer loop
      vertex 0 40 1
      vertex 0 0 0
      vertex 0 0 1
    endloop
  endfacet
  facet normal 0 -1 0
    outer loop
      vertex 0 0 0
      vertex 40 0 1
      vertex 0 0 1
    endloop
  endfacet
  facet normal 0 -1 -0
    outer loop
      vertex 40 0 1
      vertex 0 0 0
      vertex 40 0 0
    endloop
  endfacet
  facet normal 0 1 -0
    outer loop
      vertex 40 40 0
      vertex 0 40 1
      vertex 40 40 1
    endloop
  endfacet
  facet normal 0 1 0
    outer loop
      vertex 0 40 1
      vertex 40 40 0
      vertex 0 40 0
    endloop
  endfacet
  facet normal 0 0 1
    outer loop
      vertex 5 5 1
      vertex 2 5 1
      vertex 5 2 1
    endloop
  endfacet
  facet normal 0 0 1
    outer loop
      vertex 6.68237 23.8671 1
      vertex 7 17 1
      vertex 9 23.5 1
    endloop
  endfacet
  facet normal 0 0 1
    outer loop
      vertex 6.68237 23.8671 1
      vertex 5 17 1
      vertex 7 17 1
    endloop
  endfacet
  facet normal 0 0 1
    outer loop
      vertex 4.59161 24.9324 1
      vertex 5 17 1
      vertex 6.68237 23.8671 1
    endloop
  endfacet
  facet normal 0 0 1
    outer loop
      vertex 2.93237 26.5916 1
      vertex 5 17 1
      vertex 4.59161 24.9324 1
    endloop
  endfacet
  facet normal 0 0 1
    outer loop
      vertex 5 17 1
      vertex 2.93237 26.5916 1
      vertex 2 7 1
    endloop
  endfacet
  facet normal 0 0 1
    outer loop
      vertex 5 17 1
      vertex 2 7 1
      vertex 5 7 1
    endloop
  endfacet
  facet normal 0 0 1
    outer loop
      vertex 0 0 1
      vertex 2 7 1
      vertex 1.86708 28.6824 1
    endloop
  endfacet
  facet normal 0 0 1
    outer loop
      vertex 1.86708 28.6824 1
      vertex 2 7 1
      vertex 2.93237 26.5916 1
    endloop
  endfacet
  facet normal 0 0 1
    outer loop
      vertex 23 17 1
      vertex 38 23 1
      vertex 23 23 1
    endloop
  endfacet
  facet normal 0 0 1
    outer loop
      vertex 38 23 1
      vertex 23 17 1
      vertex 38 2 1
    endloop
  endfacet
  facet normal 0 0 1
    outer loop
      vertex 38 23 1
      vertex 40 40 1
      vertex 38 38 1
    endloop
  endfacet
  facet normal 0 0 1
    outer loop
      vertex 40 40 1
      vertex 23 38 1
      vertex 38 38 1
    endloop
  endfacet
  facet normal -0 0 1
    outer loop
      vertex 16.5 31 1
      vertex 23 23 1
      vertex 23 38 1
    endloop
  endfacet
  facet normal -0 0 1
    outer loop
      vertex 15.0676 26.5916 1
      vertex 23 23 1
      vertex 16.1329 28.6824 1
    endloop
  endfacet
  facet normal -0 0 1
    outer loop
      vertex 13.4084 24.9324 1
      vertex 23 23 1
      vertex 15.0676 26.5916 1
    endloop
  endfacet
  facet normal 0 0 1
    outer loop
      vertex 23 23 1
      vertex 16.5 31 1
      vertex 16.1329 28.6824 1
    endloop
  endfacet
  facet normal 0 0 1
    outer loop
      vertex 23 38 1
      vertex 16.1329 33.3176 1
      vertex 16.5 31 1
    endloop
  endfacet
  facet normal 0 0 1
    outer loop
      vertex 23 38 1
      vertex 15.0676 35.4084 1
      vertex 16.1329 33.3176 1
    endloop
  endfacet
  facet normal 0 0 1
    outer loop
      vertex 23 38 1
      vertex 13.4084 37.0676 1
      vertex 15.0676 35.4084 1
    endloop
  endfacet
  facet normal -0 0 1
    outer loop
      vertex 0 40 1
      vertex 23 38 1
      vertex 40 40 1
    endloop
  endfacet
  facet normal 0 0 1
    outer loop
      vertex 23 38 1
      vertex 11.3176 38.1329 1
      vertex 13.4084 37.0676 1
    endloop
  endfacet
  facet normal 0 0 1
    outer loop
      vertex 23 38 1
      vertex 9 38.5 1
      vertex 11.3176 38.1329 1
    endloop
  endfacet
  facet normal 0 0 1
    outer loop
      vertex 1.86708 33.3176 1
      vertex 0 40 1
      vertex 1.5 31 1
    endloop
  endfacet
  facet normal 0 0 1
    outer loop
      vertex 2.93237 35.4084 1
      vertex 0 40 1
      vertex 1.86708 33.3176 1
    endloop
  endfacet
  facet normal 0 0 1
    outer loop
      vertex 4.59161 37.0676 1
      vertex 0 40 1
      vertex 2.93237 35.4084 1
    endloop
  endfacet
  facet normal 0 0 1
    outer loop
      vertex 6.68237 38.1329 1
      vertex 0 40 1
      vertex 4.59161 37.0676 1
    endloop
  endfacet
  facet normal 0 0 1
    outer loop
      vertex 9 38.5 1
      vertex 0 40 1
      vertex 6.68237 38.1329 1
    endloop
  endfacet
  facet normal 0 0 1
    outer loop
      vertex 23 38 1
      vertex 0 40 1
      vertex 9 38.5 1
    endloop
  endfacet
  facet normal 0 0 1
    outer loop
      vertex 40 40 1
      vertex 38 23 1
      vertex 40 0 1
    endloop
  endfacet
  facet normal -0 0 1
    outer loop
      vertex 38 2 1
      vertex 40 0 1
      vertex 38 23 1
    endloop
  endfacet
  facet normal -0 0 1
    outer loop
      vertex 23 2 1
      vertex 40 0 1
      vertex 38 2 1
    endloop
  endfacet
  facet normal -0 0 1
    outer loop
      vertex 17 5 1
      vertex 23 2 1
      vertex 17 7 1
    endloop
  endfacet
  facet normal 0 0 1
    outer loop
      vertex 7 2 1
      vertex 17 5 1
      vertex 7 5 1
    endloop
  endfacet
  facet normal 0 0 1
    outer loop
      vertex 17 5 1
      vertex 7 2 1
      vertex 23 2 1
    endloop
  endfacet
  facet normal 0 0 1
    outer loop
      vertex 0 0 1
      vertex 23 2 1
      vertex 7 2 1
    endloop
  endfacet
  facet normal 0 0 1
    outer loop
      vertex 0 0 1
      vertex 7 2 1
      vertex 5 2 1
    endloop
  endfacet
  facet normal 0 0 1
    outer loop
      vertex 0 0 1
      vertex 1.86708 28.6824 1
      vertex 1.5 31 1
    endloop
  endfacet
  facet normal 0 0 1
    outer loop
      vertex 0 0 1
      vertex 1.5 31 1
      vertex 0 40 1
    endloop
  endfacet
  facet normal 0 0 1
    outer loop
      vertex 23 2 1
      vertex 0 0 1
      vertex 40 0 1
    endloop
  endfacet
  facet normal 0 0 1
    outer loop
      vertex 2 5 1
      vertex 0 0 1
      vertex 5 2 1
    endloop
  endfacet
  facet normal 0 0 1
    outer loop
      vertex 2 7 1
      vertex 0 0 1
      vertex 2 5 1
    endloop
  endfacet
  facet normal 0 0 1
    outer loop
      vertex 23 23 1
      vertex 13.4084 24.9324 1
      vertex 23 17 1
    endloop
  endfacet
  facet normal 0 0 1
    outer loop
      vertex 23 17 1
      vertex 17 7 1
      vertex 23 2 1
    endloop
  endfacet
  facet normal -0 0 1
    outer loop
      vertex 11.3176 23.8671 1
      vertex 23 17 1
      vertex 13.4084 24.9324 1
    endloop
  endfacet
  facet normal 0 0 1
    outer loop
      vertex 7 17 1
      vertex 23 17 1
      vertex 11.3176 23.8671 1
    endloop
  endfacet
  facet normal 0 0 1
    outer loop
      vertex 7 17 1
      vertex 11.3176 23.8671 1
      vertex 9 23.5 1
    endloop
  endfacet
  facet normal 0 0 1
    outer loop
      vertex 23 17 1
      vertex 7 17 1
      vertex 17 7 1
    endloop
  endfacet
  facet normal 0 0 1
    outer loop
      vertex 17 7 1
      vertex 7 17 1
      vertex 7 7 1
    endloop
  endfacet
endsolid OpenSCAD_Model
