solid OpenSCAD_Model
  facet normal -1 0 0
    outer loop
      vertex 3.5 1.5 0
      vertex 3.5 2.5 0.5
      vertex 3.5 2.5 0
    endloop
  endfacet
  facet normal -1 -0 0
    outer loop
      vertex 3.5 2.5 0.5
      vertex 3.5 1.5 0
      vertex 3.5 1.5 0.5
    endloop
  endfacet
  facet normal 1 -0 0
    outer loop
      vertex 0.5 1.5 0.5
      vertex 0.5 2.5 0
      vertex 0.5 2.5 0.5
    endloop
  endfacet
  facet normal 1 0 0
    outer loop
      vertex 0.5 2.5 0
      vertex 0.5 1.5 0.5
      vertex 0.5 1.5 0
    endloop
  endfacet
  facet normal 0 1 -0
    outer loop
      vertex 1.5 1.5 0
      vertex 0.5 1.5 0.5
      vertex 1.5 1.5 0.5
    endloop
  endfacet
  facet normal 0 1 0
    outer loop
      vertex 0.5 1.5 0.5
      vertex 1.5 1.5 0
      vertex 0.5 1.5 0
    endloop
  endfacet
  facet normal 0 1 -0
    outer loop
      vertex 3.5 1.5 0
      vertex 2.5 1.5 0.5
      vertex 3.5 1.5 0.5
    endloop
  endfacet
  facet normal 0 1 0
    outer loop
      vertex 2.5 1.5 0.5
      vertex 3.5 1.5 0
      vertex 2.5 1.5 0
    endloop
  endfacet
  facet normal 0 -1 0
    outer loop
      vertex 0.5 2.5 0
      vertex 1.5 2.5 0.5
      vertex 0.5 2.5 0.5
    endloop
  endfacet
  facet normal 0 -1 -0
    outer loop
      vertex 1.5 2.5 0.5
      vertex 0.5 2.5 0
      vertex 1.5 2.5 0
    endloop
  endfacet
  facet normal 0 -1 0
    outer loop
      vertex 2.5 2.5 0
      vertex 3.5 2.5 0.5
      vertex 2.5 2.5 0.5
    endloop
  endfacet
  facet normal 0 -1 -0
    outer loop
      vertex 3.5 2.5 0.5
      vertex 2.5 2.5 0
      vertex 3.5 2.5 0
    endloop
  endfacet
  facet normal -1 0 0
    outer loop
      vertex 2.5 0.5 0
      vertex 2.5 1.5 0.5
      vertex 2.5 1.5 0
    endloop
  endfacet
  facet normal -1 -0 0
    outer loop
      vertex 2.5 1.5 0.5
      vertex 2.5 0.5 0
      vertex 2.5 0.5 0.5
    endloop
  endfacet
  facet normal -1 0 0
    outer loop
      vertex 2.5 2.5 0
      vertex 2.5 3.5 0.5
      vertex 2.5 3.5 0
    endloop
  endfacet
  facet normal -1 -0 0
    outer loop
      vertex 2.5 3.5 0.5
      vertex 2.5 2.5 0
      vertex 2.5 2.5 0.5
    endloop
  endfacet
  facet normal 1 -0 0
    outer loop
      vertex 1.5 2.5 0.5
      vertex 1.5 3.5 0
      vertex 1.5 3.5 0.5
    endloop
  endfacet
  facet normal 1 0 0
    outer loop
      vertex 1.5 3.5 0
      vertex 1.5 2.5 0.5
      vertex 1.5 2.5 0
    endloop
  endfacet
  facet normal 1 -0 0
    outer loop
      vertex 1.5 0.5 0.5
      vertex 1.5 1.5 0
      vertex 1.5 1.5 0.5
    endloop
  endfacet
  facet normal 1 0 0
    outer loop
      vertex 1.5 1.5 0
      vertex 1.5 0.5 0.5
      vertex 1.5 0.5 0
    endloop
  endfacet
  facet normal 0 1 -0
    outer loop
      vertex 2.5 0.5 0
      vertex 1.5 0.5 0.5
      vertex 2.5 0.5 0.5
    endloop
  endfacet
  facet normal 0 1 0
    outer loop
      vertex 1.5 0.5 0.5
      vertex 2.5 0.5 0
      vertex 1.5 0.5 0
    endloop
  endfacet
  facet normal 0 -1 0
    outer loop
      vertex 1.5 3.5 0
      vertex 2.5 3.5 0.5
      vertex 1.5 3.5 0.5
    endloop
  endfacet
  facet normal 0 -1 -0
    outer loop
      vertex 2.5 3.5 0.5
      vertex 1.5 3.5 0
      vertex 2.5 3.5 0
    endloop
  endfacet
  facet normal -1 0 0
    outer loop
      vertex 9.5 6.5 0
      vertex 9.5 9.5 0.5
      vertex 9.5 9.5 0
    endloop
  endfacet
  facet normal -1 -0 0
    outer loop
      vertex 9.5 9.5 0.5
      vertex 9.5 6.5 0
      vertex 9.5 6.5 0.5
    endloop
  endfacet
  facet normal 1 -0 0
    outer loop
      vertex 6.5 6.5 0.5
      vertex 6.5 9.5 0
      vertex 6.5 9.5 0.5
    endloop
  endfacet
  facet normal 1 0 0
    outer loop
      vertex 6.5 9.5 0
      vertex 6.5 6.5 0.5
      vertex 6.5 6.5 0
    endloop
  endfacet
  facet normal 0 1 -0
    outer loop
      vertex 9.5 6.5 0
      vertex 6.5 6.5 0.5
      vertex 9.5 6.5 0.5
    endloop
  endfacet
  facet normal 0 1 0
    outer loop
      vertex 6.5 6.5 0.5
      vertex 9.5 6.5 0
      vertex 6.5 6.5 0
    endloop
  endfacet
  facet normal 0 -1 0
    outer loop
      vertex 6.5 9.5 0
      vertex 9.5 9.5 0.5
      vertex 6.5 9.5 0.5
    endloop
  endfacet
  facet normal 0 -1 -0
    outer loop
      vertex 9.5 9.5 0.5
      vertex 6.5 9.5 0
      vertex 9.5 9.5 0
    endloop
  endfacet
  facet normal -0.891007 0.45399 0
    outer loop
      vertex 3.21352 7.11832 0
      vertex 3.42658 7.53647 0.5
      vertex 3.42658 7.53647 0
    endloop
  endfacet
  facet normal -0.891007 0.45399 0
    outer loop
      vertex 3.42658 7.53647 0.5
      vertex 3.21352 7.11832 0
      vertex 3.21352 7.11832 0.5
    endloop
  endfacet
  facet normal -0.987688 0.156435 0
    outer loop
      vertex 3.42658 7.53647 0
      vertex 3.5 8 0.5
      vertex 3.5 8 0
    endloop
  endfacet
  facet normal -0.987688 0.156435 0
    outer loop
      vertex 3.5 8 0.5
      vertex 3.42658 7.53647 0
      vertex 3.42658 7.53647 0.5
    endloop
  endfacet
  facet normal 0.987688 -0.156434 0
    outer loop
      vertex 0.5 8 0.5
      vertex 0.573415 8.46352 0
      vertex 0.573415 8.46352 0.5
    endloop
  endfacet
  facet normal 0.987688 -0.156434 0
    outer loop
      vertex 0.573415 8.46352 0
      vertex 0.5 8 0.5
      vertex 0.5 8 0
    endloop
  endfacet
  facet normal 0.707107 -0.707107 0
    outer loop
      vertex 0.786474 8.88168 0.5
      vertex 1.11832 9.21352 0
      vertex 1.11832 9.21352 0.5
    endloop
  endfacet
  facet normal 0.707107 -0.707107 0
    outer loop
      vertex 1.11832 9.21352 0
      vertex 0.786474 8.88168 0.5
      vertex 0.786474 8.88168 0
    endloop
  endfacet
  facet normal 0.987688 0.156433 0
    outer loop
      vertex 0.573415 7.53647 0.5
      vertex 0.5 8 0
      vertex 0.5 8 0.5
    endloop
  endfacet
  facet normal 0.987688 0.156433 0
    outer loop
      vertex 0.5 8 0
      vertex 0.573415 7.53647 0.5
      vertex 0.573415 7.53647 0
    endloop
  endfacet
  facet normal -0.707107 0.707107 0
    outer loop
      vertex 2.88168 6.78647 0
      vertex 3.21352 7.11832 0.5
      vertex 3.21352 7.11832 0
    endloop
  endfacet
  facet normal -0.707107 0.707107 0
    outer loop
      vertex 3.21352 7.11832 0.5
      vertex 2.88168 6.78647 0
      vertex 2.88168 6.78647 0.5
    endloop
  endfacet
  facet normal 0.891007 -0.45399 0
    outer loop
      vertex 0.573415 8.46352 0.5
      vertex 0.786474 8.88168 0
      vertex 0.786474 8.88168 0.5
    endloop
  endfacet
  facet normal 0.891007 -0.45399 0
    outer loop
      vertex 0.786474 8.88168 0
      vertex 0.573415 8.46352 0.5
      vertex 0.573415 8.46352 0
    endloop
  endfacet
  facet normal 0.707107 0.707107 0
    outer loop
      vertex 1.11832 6.78647 0.5
      vertex 0.786474 7.11832 0
      vertex 0.786474 7.11832 0.5
    endloop
  endfacet
  facet normal 0.707107 0.707107 0
    outer loop
      vertex 0.786474 7.11832 0
      vertex 1.11832 6.78647 0.5
      vertex 1.11832 6.78647 0
    endloop
  endfacet
  facet normal 0.891007 0.45399 0
    outer loop
      vertex 0.786474 7.11832 0.5
      vertex 0.573415 7.53647 0
      vertex 0.573415 7.53647 0.5
    endloop
  endfacet
  facet normal 0.891007 0.45399 0
    outer loop
      vertex 0.573415 7.53647 0
      vertex 0.786474 7.11832 0.5
      vertex 0.786474 7.11832 0
    endloop
  endfacet
  facet normal -0.45399 0.891007 0
    outer loop
      vertex 2.88168 6.78647 0
      vertex 2.46352 6.57341 0.5
      vertex 2.88168 6.78647 0.5
    endloop
  endfacet
  facet normal -0.45399 0.891007 0
    outer loop
      vertex 2.46352 6.57341 0.5
      vertex 2.88168 6.78647 0
      vertex 2.46352 6.57341 0
    endloop
  endfacet
  facet normal -0.156436 -0.987688 0
    outer loop
      vertex 2 9.5 0
      vertex 2.46352 9.42658 0.5
      vertex 2 9.5 0.5
    endloop
  endfacet
  facet normal -0.156436 -0.987688 -0
    outer loop
      vertex 2.46352 9.42658 0.5
      vertex 2 9.5 0
      vertex 2.46352 9.42658 0
    endloop
  endfacet
  facet normal 0.156434 0.987688 -0
    outer loop
      vertex 2 6.5 0
      vertex 1.53647 6.57341 0.5
      vertex 2 6.5 0.5
    endloop
  endfacet
  facet normal 0.156434 0.987688 0
    outer loop
      vertex 1.53647 6.57341 0.5
      vertex 2 6.5 0
      vertex 1.53647 6.57341 0
    endloop
  endfacet
  facet normal 0.45399 0.891007 -0
    outer loop
      vertex 1.53647 6.57341 0
      vertex 1.11832 6.78647 0.5
      vertex 1.53647 6.57341 0.5
    endloop
  endfacet
  facet normal 0.45399 0.891007 0
    outer loop
      vertex 1.11832 6.78647 0.5
      vertex 1.53647 6.57341 0
      vertex 1.11832 6.78647 0
    endloop
  endfacet
  facet normal -0.45399 -0.891007 0
    outer loop
      vertex 2.46352 9.42658 0
      vertex 2.88168 9.21352 0.5
      vertex 2.46352 9.42658 0.5
    endloop
  endfacet
  facet normal -0.45399 -0.891007 -0
    outer loop
      vertex 2.88168 9.21352 0.5
      vertex 2.46352 9.42658 0
      vertex 2.88168 9.21352 0
    endloop
  endfacet
  facet normal -0.707107 -0.707107 0
    outer loop
      vertex 3.21352 8.88168 0
      vertex 2.88168 9.21352 0.5
      vertex 2.88168 9.21352 0
    endloop
  endfacet
  facet normal -0.707107 -0.707107 0
    outer loop
      vertex 2.88168 9.21352 0.5
      vertex 3.21352 8.88168 0
      vertex 3.21352 8.88168 0.5
    endloop
  endfacet
  facet normal -0.891007 -0.45399 0
    outer loop
      vertex 3.42658 8.46352 0
      vertex 3.21352 8.88168 0.5
      vertex 3.21352 8.88168 0
    endloop
  endfacet
  facet normal -0.891007 -0.45399 0
    outer loop
      vertex 3.21352 8.88168 0.5
      vertex 3.42658 8.46352 0
      vertex 3.42658 8.46352 0.5
    endloop
  endfacet
  facet normal -0.987688 -0.156436 0
    outer loop
      vertex 3.5 8 0
      vertex 3.42658 8.46352 0.5
      vertex 3.42658 8.46352 0
    endloop
  endfacet
  facet normal -0.987688 -0.156436 0
    outer loop
      vertex 3.42658 8.46352 0.5
      vertex 3.5 8 0
      vertex 3.5 8 0.5
    endloop
  endfacet
  facet normal 0.45399 -0.891007 0
    outer loop
      vertex 1.11832 9.21352 0
      vertex 1.53647 9.42658 0.5
      vertex 1.11832 9.21352 0.5
    endloop
  endfacet
  facet normal 0.45399 -0.891007 0
    outer loop
      vertex 1.53647 9.42658 0.5
      vertex 1.11832 9.21352 0
      vertex 1.53647 9.42658 0
    endloop
  endfacet
  facet normal 0.156435 -0.987688 0
    outer loop
      vertex 1.53647 9.42658 0
      vertex 2 9.5 0.5
      vertex 1.53647 9.42658 0.5
    endloop
  endfacet
  facet normal 0.156435 -0.987688 0
    outer loop
      vertex 2 9.5 0.5
      vertex 1.53647 9.42658 0
      vertex 2 9.5 0
    endloop
  endfacet
  facet normal -0.156433 0.987688 0
    outer loop
      vertex 2.46352 6.57341 0
      vertex 2 6.5 0.5
      vertex 2.46352 6.57341 0.5
    endloop
  endfacet
  facet normal -0.156433 0.987688 0
    outer loop
      vertex 2 6.5 0.5
      vertex 2.46352 6.57341 0
      vertex 2 6.5 0
    endloop
  endfacet
  facet normal 0 1 -0
    outer loop
      vertex 9.5 0.5 0
      vertex 6.5 0.5 0.5
      vertex 9.5 0.5 0.5
    endloop
  endfacet
  facet normal 0 1 0
    outer loop
      vertex 6.5 0.5 0.5
      vertex 9.5 0.5 0
      vertex 6.5 0.5 0
    endloop
  endfacet
  facet normal -0.707107 -0.707107 0
    outer loop
      vertex 9.5 0.5 0
      vertex 6.5 3.5 0.5
      vertex 6.5 3.5 0
    endloop
  endfacet
  facet normal -0.707107 -0.707107 0
    outer loop
      vertex 6.5 3.5 0.5
      vertex 9.5 0.5 0
      vertex 9.5 0.5 0.5
    endloop
  endfacet
  facet normal 1 -0 0
    outer loop
      vertex 6.5 0.5 0.5
      vertex 6.5 3.5 0
      vertex 6.5 3.5 0.5
    endloop
  endfacet
  facet normal 1 0 0
    outer loop
      vertex 6.5 3.5 0
      vertex 6.5 0.5 0.5
      vertex 6.5 0.5 0
    endloop
  endfacet
  facet normal 0 0 -1
    outer loop
      vertex 0.5 2.5 0
      vertex 1.5 3.5 0
      vertex 1.5 2.5 0
    endloop
  endfacet
  facet normal -0 0 -1
    outer loop
      vertex 1.5 3.5 0
      vertex 0.5 2.5 0
      vertex 1.11832 6.78647 0
    endloop
  endfacet
  facet normal -0 0 -1
    outer loop
      vertex 1.11832 6.78647 0
      vertex 0.5 2.5 0
      vertex 0.786474 7.11832 0
    endloop
  endfacet
  facet normal -0 0 -1
    outer loop
      vertex 0.786474 7.11832 0
      vertex 0.5 2.5 0
      vertex 0.573415 7.53647 0
    endloop
  endfacet
  facet normal -0 0 -1
    outer loop
      vertex 0.573415 7.53647 0
      vertex 0.5 2.5 0
      vertex 0.5 8 0
    endloop
  endfacet
  facet normal 0 0 -1
    outer loop
      vertex 6.5 6.5 0
      vertex 3.42658 7.53647 0
      vertex 3.5 8 0
    endloop
  endfacet
  facet normal 0 0 -1
    outer loop
      vertex 6.5 6.5 0
      vertex 3.21352 7.11832 0
      vertex 3.42658 7.53647 0
    endloop
  endfacet
  facet normal 0 0 -1
    outer loop
      vertex 6.5 6.5 0
      vertex 2.88168 6.78647 0
      vertex 3.21352 7.11832 0
    endloop
  endfacet
  facet normal 0 0 -1
    outer loop
      vertex 2.5 3.5 0
      vertex 3.5 2.5 0
      vertex 2.5 2.5 0
    endloop
  endfacet
  facet normal 0 0 -1
    outer loop
      vertex 6.5 3.5 0
      vertex 2.88168 6.78647 0
      vertex 6.5 6.5 0
    endloop
  endfacet
  facet normal 0 0 -1
    outer loop
      vertex 2.5 3.5 0
      vertex 2.46352 6.57341 0
      vertex 2.88168 6.78647 0
    endloop
  endfacet
  facet normal 0 0 -1
    outer loop
      vertex 2.5 3.5 0
      vertex 2 6.5 0
      vertex 2.46352 6.57341 0
    endloop
  endfacet
  facet normal 0 0 -1
    outer loop
      vertex 1.5 3.5 0
      vertex 2 6.5 0
      vertex 2.5 3.5 0
    endloop
  endfacet
  facet normal -0 0 -1
    outer loop
      vertex 2 6.5 0
      vertex 1.5 3.5 0
      vertex 1.53647 6.57341 0
    endloop
  endfacet
  facet normal -0 0 -1
    outer loop
      vertex 1.53647 6.57341 0
      vertex 1.5 3.5 0
      vertex 1.11832 6.78647 0
    endloop
  endfacet
  facet normal 0 0 -1
    outer loop
      vertex 6.5 3.5 0
      vertex 9.5 6.5 0
      vertex 9.5 0.5 0
    endloop
  endfacet
  facet normal -0 0 -1
    outer loop
      vertex 9.5 6.5 0
      vertex 6.5 3.5 0
      vertex 6.5 6.5 0
    endloop
  endfacet
  facet normal 0 0 -1
    outer loop
      vertex 9.5 6.5 0
      vertex 10 0 0
      vertex 9.5 0.5 0
    endloop
  endfacet
  facet normal 0 0 -1
    outer loop
      vertex 10 0 0
      vertex 6.5 0.5 0
      vertex 9.5 0.5 0
    endloop
  endfacet
  facet normal 0 0 -1
    outer loop
      vertex 3.5 2.5 0
      vertex 6.5 3.5 0
      vertex 6.5 0.5 0
    endloop
  endfacet
  facet normal 0 0 -1
    outer loop
      vertex 2.5 3.5 0
      vertex 6.5 3.5 0
      vertex 3.5 2.5 0
    endloop
  endfacet
  facet normal 0 0 -1
    outer loop
      vertex 3.5 2.5 0
      vertex 6.5 0.5 0
      vertex 3.5 1.5 0
    endloop
  endfacet
  facet normal 0 0 -1
    outer loop
      vertex 6.5 0.5 0
      vertex 2.5 0.5 0
      vertex 3.5 1.5 0
    endloop
  endfacet
  facet normal 0 0 -1
    outer loop
      vertex 0 0 0
      vertex 6.5 0.5 0
      vertex 10 0 0
    endloop
  endfacet
  facet normal -0 0 -1
    outer loop
      vertex 6.5 0.5 0
      vertex 0 0 0
      vertex 2.5 0.5 0
    endloop
  endfacet
  facet normal 0 0 -1
    outer loop
      vertex 1.5 0.5 0
      vertex 0.5 1.5 0
      vertex 1.5 1.5 0
    endloop
  endfacet
  facet normal 0 0 -1
    outer loop
      vertex 0 0 0
      vertex 0.5 2.5 0
      vertex 0.5 1.5 0
    endloop
  endfacet
  facet normal 0 0 -1
    outer loop
      vertex 0 10 0
      vertex 0.5 2.5 0
      vertex 0 0 0
    endloop
  endfacet
  facet normal -0 0 -1
    outer loop
      vertex 1.5 0.5 0
      vertex 0 0 0
      vertex 0.5 1.5 0
    endloop
  endfacet
  facet normal -0 0 -1
    outer loop
      vertex 2.5 0.5 0
      vertex 0 0 0
      vertex 1.5 0.5 0
    endloop
  endfacet
  facet normal 0 0 -1
    outer loop
      vertex 10 0 0
      vertex 9.5 6.5 0
      vertex 10 10 0
    endloop
  endfacet
  facet normal 0 0 -1
    outer loop
      vertex 9.5 9.5 0
      vertex 10 10 0
      vertex 9.5 6.5 0
    endloop
  endfacet
  facet normal 0 0 -1
    outer loop
      vertex 6.5 9.5 0
      vertex 10 10 0
      vertex 9.5 9.5 0
    endloop
  endfacet
  facet normal 0 -0 -1
    outer loop
      vertex 2.88168 6.78647 0
      vertex 6.5 3.5 0
      vertex 2.5 3.5 0
    endloop
  endfacet
  facet normal 0 0 -1
    outer loop
      vertex 6.5 6.5 0
      vertex 3.5 8 0
      vertex 6.5 9.5 0
    endloop
  endfacet
  facet normal 0 0 -1
    outer loop
      vertex 3.42658 8.46352 0
      vertex 6.5 9.5 0
      vertex 3.5 8 0
    endloop
  endfacet
  facet normal 0 0 -1
    outer loop
      vertex 3.21352 8.88168 0
      vertex 6.5 9.5 0
      vertex 3.42658 8.46352 0
    endloop
  endfacet
  facet normal 0 0 -1
    outer loop
      vertex 2.88168 9.21352 0
      vertex 6.5 9.5 0
      vertex 3.21352 8.88168 0
    endloop
  endfacet
  facet normal 0 0 -1
    outer loop
      vertex 2.46352 9.42658 0
      vertex 6.5 9.5 0
      vertex 2.88168 9.21352 0
    endloop
  endfacet
  facet normal 0 0 -1
    outer loop
      vertex 0 10 0
      vertex 6.5 9.5 0
      vertex 2.46352 9.42658 0
    endloop
  endfacet
  facet normal 0 0 -1
    outer loop
      vertex 0 10 0
      vertex 2.46352 9.42658 0
      vertex 2 9.5 0
    endloop
  endfacet
  facet normal 0 0 -1
    outer loop
      vertex 6.5 9.5 0
      vertex 0 10 0
      vertex 10 10 0
    endloop
  endfacet
  facet normal 0 0 -1
    outer loop
      vertex 1.53647 9.42658 0
      vertex 0 10 0
      vertex 2 9.5 0
    endloop
  endfacet
  facet normal 0 0 -1
    outer loop
      vertex 1.11832 9.21352 0
      vertex 0 10 0
      vertex 1.53647 9.42658 0
    endloop
  endfacet
  facet normal 0 0 -1
    outer loop
      vertex 0.786474 8.88168 0
      vertex 0 10 0
      vertex 1.11832 9.21352 0
    endloop
  endfacet
  facet normal 0 0 -1
    outer loop
      vertex 0.573415 8.46352 0
      vertex 0 10 0
      vertex 0.786474 8.88168 0
    endloop
  endfacet
  facet normal 0 0 -1
    outer loop
      vertex 0.5 8 0
      vertex 0 10 0
      vertex 0.573415 8.46352 0
    endloop
  endfacet
  facet normal 0 0 -1
    outer loop
      vertex 0.5 2.5 0
      vertex 0 10 0
      vertex 0.5 8 0
    endloop
  endfacet
  facet normal -0 0 -1
    outer loop
      vertex 3.5 1.5 0
      vertex 2.5 0.5 0
      vertex 2.5 1.5 0
    endloop
  endfacet
  facet normal 1 -0 0
    outer loop
      vertex 10 0 0.5
      vertex 10 10 0
      vertex 10 10 0.5
    endloop
  endfacet
  facet normal 1 0 0
    outer loop
      vertex 10 10 0
      vertex 10 0 0.5
      vertex 10 0 0
    endloop
  endfacet
  facet normal -1 0 0
    outer loop
      vertex 0 0 0
      vertex 0 10 0.5
      vertex 0 10 0
    endloop
  endfacet
  facet normal -1 -0 0
    outer loop
      vertex 0 10 0.5
      vertex 0 0 0
      vertex 0 0 0.5
    endloop
  endfacet
  facet normal 0 -1 0
    outer loop
      vertex 0 0 0
      vertex 10 0 0.5
      vertex 0 0 0.5
    endloop
  endfacet
  facet normal 0 -1 -0
    outer loop
      vertex 10 0 0.5
      vertex 0 0 0
      vertex 10 0 0
    endloop
  endfacet
  facet normal 0 1 -0
    outer loop
      vertex 10 10 0
      vertex 0 10 0.5
      vertex 10 10 0.5
    endloop
  endfacet
  facet normal 0 1 0
    outer loop
      vertex 0 10 0.5
      vertex 10 10 0
      vertex 0 10 0
    endloop
  endfacet
  facet normal 0 0 1
    outer loop
      vertex 1.5 1.5 0.5
      vertex 0.5 1.5 0.5
      vertex 1.5 0.5 0.5
    endloop
  endfacet
  facet normal -0 0 1
    outer loop
      vertex 2.46352 6.57341 0.5
      vertex 2.5 3.5 0.5
      vertex 2.88168 6.78647 0.5
    endloop
  endfacet
  facet normal -0 0 1
    outer loop
      vertex 2 6.5 0.5
      vertex 2.5 3.5 0.5
      vertex 2.46352 6.57341 0.5
    endloop
  endfacet
  facet normal 0 0 1
    outer loop
      vertex 1.5 3.5 0.5
      vertex 2 6.5 0.5
      vertex 1.53647 6.57341 0.5
    endloop
  endfacet
  facet normal 0 0 1
    outer loop
      vertex 2 6.5 0.5
      vertex 1.5 3.5 0.5
      vertex 2.5 3.5 0.5
    endloop
  endfacet
  facet normal 0 0 1
    outer loop
      vertex 1.11832 6.78647 0.5
      vertex 1.5 3.5 0.5
      vertex 1.53647 6.57341 0.5
    endloop
  endfacet
  facet normal 0 0 1
    outer loop
      vertex 0.5 2.5 0.5
      vertex 1.5 3.5 0.5
      vertex 1.11832 6.78647 0.5
    endloop
  endfacet
  facet normal 0 0 1
    outer loop
      vertex 0.5 2.5 0.5
      vertex 1.11832 6.78647 0.5
      vertex 0.786474 7.11832 0.5
    endloop
  endfacet
  facet normal 0 0 1
    outer loop
      vertex 0.5 2.5 0.5
      vertex 0.786474 7.11832 0.5
      vertex 0.573415 7.53647 0.5
    endloop
  endfacet
  facet normal 0 0 1
    outer loop
      vertex 1.5 3.5 0.5
      vertex 0.5 2.5 0.5
      vertex 1.5 2.5 0.5
    endloop
  endfacet
  facet normal 0 0 1
    outer loop
      vertex 0.5 2.5 0.5
      vertex 0.573415 7.53647 0.5
      vertex 0.5 8 0.5
    endloop
  endfacet
  facet normal -0 0 1
    outer loop
      vertex 3.21352 7.11832 0.5
      vertex 6.5 6.5 0.5
      vertex 3.42658 7.53647 0.5
    endloop
  endfacet
  facet normal -0 0 1
    outer loop
      vertex 2.88168 6.78647 0.5
      vertex 6.5 6.5 0.5
      vertex 3.21352 7.11832 0.5
    endloop
  endfacet
  facet normal 0 0 1
    outer loop
      vertex 2.5 3.5 0.5
      vertex 6.5 6.5 0.5
      vertex 2.88168 6.78647 0.5
    endloop
  endfacet
  facet normal 0 0 1
    outer loop
      vertex 6.5 6.5 0.5
      vertex 2.5 3.5 0.5
      vertex 3.5 2.5 0.5
    endloop
  endfacet
  facet normal 0 0 1
    outer loop
      vertex 3.5 2.5 0.5
      vertex 2.5 3.5 0.5
      vertex 2.5 2.5 0.5
    endloop
  endfacet
  facet normal 0 0 1
    outer loop
      vertex 6.5 3.5 0.5
      vertex 9.5 6.5 0.5
      vertex 6.5 6.5 0.5
    endloop
  endfacet
  facet normal 0 0 1
    outer loop
      vertex 9.5 6.5 0.5
      vertex 6.5 3.5 0.5
      vertex 9.5 0.5 0.5
    endloop
  endfacet
  facet normal 0 0 1
    outer loop
      vertex 9.5 6.5 0.5
      vertex 10 10 0.5
      vertex 9.5 9.5 0.5
    endloop
  endfacet
  facet normal 0 0 1
    outer loop
      vertex 10 10 0.5
      vertex 6.5 9.5 0.5
      vertex 9.5 9.5 0.5
    endloop
  endfacet
  facet normal -0 0 1
    outer loop
      vertex 3.5 8 0.5
      vertex 6.5 6.5 0.5
      vertex 6.5 9.5 0.5
    endloop
  endfacet
  facet normal -0 0 1
    outer loop
      vertex 3.42658 7.53647 0.5
      vertex 6.5 6.5 0.5
      vertex 3.5 8 0.5
    endloop
  endfacet
  facet normal 0 0 1
    outer loop
      vertex 6.5 6.5 0.5
      vertex 3.5 2.5 0.5
      vertex 6.5 3.5 0.5
    endloop
  endfacet
  facet normal 0 0 1
    outer loop
      vertex 6.5 9.5 0.5
      vertex 3.42658 8.46352 0.5
      vertex 3.5 8 0.5
    endloop
  endfacet
  facet normal 0 0 1
    outer loop
      vertex 6.5 9.5 0.5
      vertex 3.21352 8.88168 0.5
      vertex 3.42658 8.46352 0.5
    endloop
  endfacet
  facet normal 0 0 1
    outer loop
      vertex 6.5 9.5 0.5
      vertex 2.88168 9.21352 0.5
      vertex 3.21352 8.88168 0.5
    endloop
  endfacet
  facet normal -0 0 1
    outer loop
      vertex 0 10 0.5
      vertex 6.5 9.5 0.5
      vertex 10 10 0.5
    endloop
  endfacet
  facet normal 0 0 1
    outer loop
      vertex 6.5 9.5 0.5
      vertex 2.46352 9.42658 0.5
      vertex 2.88168 9.21352 0.5
    endloop
  endfacet
  facet normal 0 0 1
    outer loop
      vertex 6.5 9.5 0.5
      vertex 0 10 0.5
      vertex 2.46352 9.42658 0.5
    endloop
  endfacet
  facet normal 0 0 1
    outer loop
      vertex 0 10 0.5
      vertex 0.5 2.5 0.5
      vertex 0.5 8 0.5
    endloop
  endfacet
  facet normal 0 0 1
    outer loop
      vertex 0.5 2.5 0.5
      vertex 0 10 0.5
      vertex 0 0 0.5
    endloop
  endfacet
  facet normal 0 0 1
    outer loop
      vertex 0.573415 8.46352 0.5
      vertex 0 10 0.5
      vertex 0.5 8 0.5
    endloop
  endfacet
  facet normal 0 0 1
    outer loop
      vertex 0.786474 8.88168 0.5
      vertex 0 10 0.5
      vertex 0.573415 8.46352 0.5
    endloop
  endfacet
  facet normal 0 0 1
    outer loop
      vertex 1.11832 9.21352 0.5
      vertex 0 10 0.5
      vertex 0.786474 8.88168 0.5
    endloop
  endfacet
  facet normal 0 0 1
    outer loop
      vertex 1.53647 9.42658 0.5
      vertex 0 10 0.5
      vertex 1.11832 9.21352 0.5
    endloop
  endfacet
  facet normal 0 0 1
    outer loop
      vertex 2 9.5 0.5
      vertex 0 10 0.5
      vertex 1.53647 9.42658 0.5
    endloop
  endfacet
  facet normal 0 0 1
    outer loop
      vertex 2.46352 9.42658 0.5
      vertex 0 10 0.5
      vertex 2 9.5 0.5
    endloop
  endfacet
  facet normal 0 0 1
    outer loop
      vertex 10 10 0.5
      vertex 9.5 6.5 0.5
      vertex 10 0 0.5
    endloop
  endfacet
  facet normal -0 0 1
    outer loop
      vertex 9.5 0.5 0.5
      vertex 10 0 0.5
      vertex 9.5 6.5 0.5
    endloop
  endfacet
  facet normal -0 0 1
    outer loop
      vertex 6.5 0.5 0.5
      vertex 10 0 0.5
      vertex 9.5 0.5 0.5
    endloop
  endfacet
  facet normal 0 0 1
    outer loop
      vertex 6.5 3.5 0.5
      vertex 3.5 2.5 0.5
      vertex 6.5 0.5 0.5
    endloop
  endfacet
  facet normal -0 0 1
    outer loop
      vertex 3.5 1.5 0.5
      vertex 6.5 0.5 0.5
      vertex 3.5 2.5 0.5
    endloop
  endfacet
  facet normal 0 0 1
    outer loop
      vertex 2.5 0.5 0.5
      vertex 3.5 1.5 0.5
      vertex 2.5 1.5 0.5
    endloop
  endfacet
  facet normal 0 0 1
    outer loop
      vertex 3.5 1.5 0.5
      vertex 2.5 0.5 0.5
      vertex 6.5 0.5 0.5
    endloop
  endfacet
  facet normal 0 0 1
    outer loop
      vertex 0 0 0.5
      vertex 6.5 0.5 0.5
      vertex 2.5 0.5 0.5
    endloop
  endfacet
  facet normal 0 0 1
    outer loop
      vertex 0 0 0.5
      vertex 2.5 0.5 0.5
      vertex 1.5 0.5 0.5
    endloop
  endfacet
  facet normal 0 0 1
    outer loop
      vertex 6.5 0.5 0.5
      vertex 0 0 0.5
      vertex 10 0 0.5
    endloop
  endfacet
  facet normal 0 0 1
    outer loop
      vertex 0.5 1.5 0.5
      vertex 0 0 0.5
      vertex 1.5 0.5 0.5
    endloop
  endfacet
  facet normal 0 0 1
    outer loop
      vertex 0.5 2.5 0.5
      vertex 0 0 0.5
      vertex 0.5 1.5 0.5
    endloop
  endfacet
endsolid OpenSCAD_Model
